<?xml version="1.0" encoding="UTF-8"?>
<svg width="64" height="64" viewBox="0 0 64 64" xmlns="http://www.w3.org/2000/svg">
  <!-- Background circle -->
  <circle cx="32" cy="32" r="30" fill="#E8F4F8" stroke="#2196F3" stroke-width="2"/>
  
  <!-- Hebrew letter Aleph (stylized) -->
  <path d="M20 45 L28 25 L24 20 M28 25 L36 45 M28 25 L40 20 L44 25" 
        stroke="#1976D2" stroke-width="3" fill="none" stroke-linecap="round" stroke-linejoin="round"/>
  
  <!-- Calendar grid -->
  <rect x="16" y="35" width="32" height="20" rx="2" fill="none" stroke="#1976D2" stroke-width="1.5"/>
  <line x1="16" y1="40" x2="48" y2="40" stroke="#1976D2" stroke-width="1"/>
  <line x1="22" y1="35" x2="22" y2="55" stroke="#1976D2" stroke-width="0.5"/>
  <line x1="28" y1="35" x2="28" y2="55" stroke="#1976D2" stroke-width="0.5"/>
  <line x1="34" y1="35" x2="34" y2="55" stroke="#1976D2" stroke-width="0.5"/>
  <line x1="40" y1="35" x2="40" y2="55" stroke="#1976D2" stroke-width="0.5"/>
  
  <!-- Small dots for calendar days -->
  <circle cx="19" cy="43" r="1" fill="#1976D2"/>
  <circle cx="25" cy="43" r="1" fill="#1976D2"/>
  <circle cx="31" cy="43" r="1" fill="#1976D2"/>
  <circle cx="37" cy="43" r="1" fill="#1976D2"/>
  <circle cx="43" cy="43" r="1" fill="#1976D2"/>
  
  <circle cx="19" cy="47" r="1" fill="#1976D2"/>
  <circle cx="25" cy="47" r="1" fill="#1976D2"/>
  <circle cx="31" cy="47" r="1" fill="#2196F3"/>
  <circle cx="37" cy="47" r="1" fill="#1976D2"/>
  <circle cx="43" cy="47" r="1" fill="#1976D2"/>
  
  <circle cx="19" cy="51" r="1" fill="#1976D2"/>
  <circle cx="25" cy="51" r="1" fill="#1976D2"/>
  <circle cx="31" cy="51" r="1" fill="#1976D2"/>
  <circle cx="37" cy="51" r="1" fill="#1976D2"/>
  <circle cx="43" cy="51" r="1" fill="#1976D2"/>
</svg>